<svg xmlns="http://www.w3.org/2000/svg" viewBox="0 0 200 200">
  <!-- Outer chaos rings -->
  <circle cx="100" cy="100" r="95" fill="none" stroke="#ff6b6b" stroke-width="2" opacity="0.6"/>
  <circle cx="100" cy="100" r="85" fill="none" stroke="#ff8787" stroke-width="1.5" opacity="0.4"/>
  
  <!-- Central chaotic elements -->
  <g transform="translate(100, 100)">
    <!-- Rotating star burst behind -->
    <g opacity="0.7">
      <polygon points="0,-60 15,-20 60,-15 25,15 35,65 0,35 -35,65 -25,15 -60,-15 -15,-20" fill="none" stroke="#ffa940" stroke-width="2"/>
    </g>
    
    <!-- Main chaos symbol - abstract explosion -->
    <g>
      <!-- Central circle -->
      <circle cx="0" cy="0" r="20" fill="#ff6b6b"/>
      
      <!-- Chaos spikes -->
      <g stroke="#ff8787" stroke-width="3" stroke-linecap="round">
        <line x1="0" y1="0" x2="0" y2="-45"/>
        <line x1="0" y1="0" x2="32" y2="-32"/>
        <line x1="0" y1="0" x2="45" y2="0"/>
        <line x1="0" y1="0" x2="32" y2="32"/>
        <line x1="0" y1="0" x2="0" y2="45"/>
        <line x1="0" y1="0" x2="-32" y2="32"/>
        <line x1="0" y1="0" x2="-45" y2="0"/>
        <line x1="0" y1="0" x2="-32" y2="-32"/>
      </g>
      
      <!-- Spike ends -->
      <g fill="#ffa940">
        <circle cx="0" cy="-45" r="4"/>
        <circle cx="32" cy="-32" r="4"/>
        <circle cx="45" cy="0" r="4"/>
        <circle cx="32" cy="32" r="4"/>
        <circle cx="0" cy="45" r="4"/>
        <circle cx="-32" cy="32" r="4"/>
        <circle cx="-45" cy="0" r="4"/>
        <circle cx="-32" cy="-32" r="4"/>
      </g>
      
      <!-- Inner glow -->
      <circle cx="0" cy="0" r="20" fill="none" stroke="#ffb3ba" stroke-width="1" opacity="0.6"/>
    </g>
    
    <!-- Scattered small chaos dots -->
    <g fill="#ffa940" opacity="0.7">
      <circle cx="-50" cy="-40" r="3"/>
      <circle cx="50" cy="-35" r="2.5"/>
      <circle cx="55" cy="25" r="2.5"/>
      <circle cx="-45" cy="50" r="3"/>
      <circle cx="-20" cy="-60" r="2"/>
      <circle cx="60" cy="50" r="2"/>
    </g>
  </g>
</svg>