<svg id="svg" version="1.1" xmlns="http://www.w3.org/2000/svg" xmlns:xlink="http://www.w3.org/1999/xlink" width="64" height="64" viewBox="0, 0, 400,400"><g id="svgg"><path id="path0" d="M186.759 19.515 C 187.116 19.608,187.699 19.608,188.056 19.515 C 188.412 19.421,188.120 19.345,187.407 19.345 C 186.694 19.345,186.403 19.421,186.759 19.515 M190.282 19.521 C 190.743 19.610,191.409 19.606,191.764 19.514 C 192.118 19.421,191.741 19.349,190.926 19.353 C 190.111 19.357,189.821 19.433,190.282 19.521 M228.705 39.541 L 236.481 47.415 236.500 49.215 C 236.515 50.740,236.441 50.938,236.010 50.508 C 235.297 49.795,234.196 49.810,234.789 50.524 C 235.214 51.037,234.071 51.778,233.213 51.546 C 233.045 51.500,233.013 51.634,233.142 51.843 C 233.271 52.051,233.206 52.222,232.996 52.222 C 232.787 52.222,232.722 52.500,232.852 52.839 C 233.001 53.225,232.942 53.364,232.694 53.211 C 232.477 53.077,232.209 53.203,232.099 53.492 C 231.969 53.828,231.590 53.942,231.041 53.810 C 230.339 53.640,230.268 53.692,230.648 54.098 C 231.279 54.772,231.231 55.208,230.556 54.949 C 230.204 54.814,230.000 54.954,230.000 55.331 C 230.000 55.658,229.823 55.926,229.608 55.926 C 229.392 55.926,229.310 56.079,229.426 56.266 C 229.542 56.454,229.368 56.875,229.041 57.203 C 228.536 57.707,228.522 57.891,228.945 58.403 C 229.399 58.953,229.369 58.961,228.611 58.489 C 227.742 57.948,227.511 57.407,228.148 57.407 C 228.352 57.407,228.519 57.150,228.519 56.835 C 228.519 56.343,228.392 56.357,227.631 56.927 C 227.142 57.293,226.810 57.703,226.892 57.839 C 226.975 57.975,226.644 58.558,226.159 59.135 C 225.247 60.218,225.185 60.356,225.185 61.296 C 225.185 61.602,224.935 61.852,224.630 61.852 C 223.999 61.852,223.880 61.269,224.454 60.985 C 224.662 60.881,224.625 60.838,224.371 60.889 C 224.117 60.939,223.814 61.383,223.698 61.876 C 223.555 62.483,223.396 62.623,223.203 62.311 C 223.047 62.059,223.011 61.703,223.124 61.520 C 223.237 61.338,223.087 61.096,222.792 60.982 C 222.364 60.818,222.322 60.954,222.585 61.646 C 222.767 62.125,222.801 62.631,222.662 62.771 C 222.522 62.910,222.407 63.219,222.407 63.457 C 222.407 63.694,222.199 63.910,221.944 63.935 C 221.690 63.961,221.305 64.002,221.089 64.028 C 220.874 64.053,220.800 64.241,220.926 64.444 C 221.052 64.648,220.978 64.815,220.763 64.815 C 220.547 64.815,220.368 64.606,220.365 64.352 C 220.361 64.044,220.240 64.075,220.003 64.444 C 219.807 64.750,219.733 65.278,219.838 65.617 C 219.983 66.081,219.854 66.189,219.320 66.049 C 218.714 65.891,218.639 66.016,218.808 66.902 L 219.006 67.940 218.022 67.295 C 217.480 66.940,217.024 66.778,217.009 66.936 C 216.993 67.093,216.904 67.556,216.810 67.963 C 216.717 68.370,216.605 69.079,216.561 69.537 C 216.484 70.343,215.926 70.750,215.926 70.000 C 215.926 69.796,215.598 69.630,215.197 69.630 C 214.765 69.630,214.540 69.819,214.645 70.093 C 214.745 70.353,214.328 70.776,213.695 71.056 C 212.839 71.435,212.620 71.725,212.789 72.259 C 212.999 72.919,212.442 73.290,212.150 72.685 C 212.076 72.532,210.354 70.830,208.323 68.902 C 206.292 66.974,212.164 72.948,221.372 82.179 C 236.463 97.306,239.388 99.955,238.955 98.102 C 238.860 97.695,238.930 97.685,239.305 98.053 C 239.680 98.422,239.903 98.238,240.430 97.127 C 240.791 96.365,241.092 95.963,241.099 96.234 C 241.105 96.505,241.957 95.801,242.991 94.669 C 244.026 93.537,245.060 92.649,245.289 92.695 C 245.519 92.740,245.715 92.569,245.724 92.315 C 245.733 92.060,245.881 91.894,246.052 91.944 C 246.224 91.995,246.606 91.574,246.903 91.008 C 247.200 90.441,247.589 90.069,247.769 90.180 C 247.948 90.290,248.201 90.045,248.332 89.635 C 248.462 89.225,248.724 88.889,248.914 88.889 C 249.104 88.889,249.259 88.657,249.259 88.373 C 249.259 87.898,250.369 87.207,250.698 87.476 C 250.777 87.540,250.984 87.207,251.158 86.735 C 251.350 86.217,251.646 85.984,251.906 86.145 C 252.146 86.293,252.238 86.251,252.113 86.049 C 251.850 85.624,253.160 84.395,253.507 84.741 C 253.637 84.871,253.622 84.662,253.474 84.276 C 253.274 83.756,253.341 83.628,253.734 83.778 C 254.025 83.890,254.477 83.752,254.739 83.472 C 255.000 83.192,255.126 82.963,255.018 82.963 C 254.910 82.963,255.100 82.638,255.440 82.241 C 255.780 81.844,256.199 81.607,256.372 81.713 C 256.544 81.820,256.642 81.770,256.589 81.602 C 256.431 81.101,258.228 79.265,258.632 79.514 C 258.839 79.642,258.889 79.559,258.745 79.326 C 258.603 79.097,258.841 78.613,259.273 78.251 C 259.706 77.889,260.471 77.218,260.975 76.759 C 261.478 76.301,262.090 75.923,262.334 75.920 C 262.604 75.917,262.561 75.774,262.222 75.556 C 261.747 75.249,261.761 75.196,262.315 75.191 C 262.671 75.188,262.963 75.009,262.963 74.793 C 262.963 74.577,263.171 74.525,263.426 74.676 C 264.467 75.295,250.951 61.466,236.414 47.037 C 227.896 38.583,224.427 35.210,228.705 39.541 M235.556 48.863 C 235.556 49.053,235.181 49.266,234.722 49.337 C 233.961 49.455,233.978 49.485,234.907 49.682 C 235.731 49.856,235.926 49.765,235.926 49.208 C 235.926 48.829,235.843 48.519,235.741 48.519 C 235.639 48.519,235.556 48.674,235.556 48.863 M228.963 54.519 C 228.358 55.123,228.404 55.556,229.074 55.556 C 229.383 55.556,229.630 55.226,229.630 54.815 C 229.630 53.951,229.561 53.921,228.963 54.519 M155.741 98.889 C 156.744 99.907,157.648 100.741,157.750 100.741 C 157.852 100.741,157.114 99.907,156.111 98.889 C 155.108 97.870,154.204 97.037,154.102 97.037 C 154.000 97.037,154.738 97.870,155.741 98.889 M202.950 145.960 C 228.396 171.418,247.871 190.622,248.241 190.621 C 248.597 190.619,248.802 190.531,248.696 190.425 C 248.415 190.143,251.176 187.407,251.742 187.407 C 252.006 187.407,252.181 187.205,252.130 186.958 C 252.079 186.711,252.370 186.354,252.778 186.164 C 253.639 185.764,255.279 183.414,255.005 182.971 C 254.903 182.806,255.079 182.571,255.396 182.449 C 255.719 182.325,255.856 182.038,255.707 181.797 C 255.540 181.528,255.603 181.467,255.875 181.635 C 256.113 181.782,256.212 182.058,256.095 182.248 C 255.978 182.437,256.142 182.593,256.460 182.593 C 256.777 182.593,256.995 182.384,256.944 182.130 C 256.894 181.875,257.102 181.667,257.407 181.667 C 257.713 181.667,257.917 181.887,257.861 182.157 C 257.805 182.427,257.931 182.542,258.140 182.412 C 258.393 182.256,258.399 181.950,258.157 181.498 C 257.768 180.772,258.515 179.750,259.046 180.281 C 259.197 180.432,259.265 180.313,259.198 180.017 C 259.130 179.721,259.269 179.471,259.506 179.461 C 259.744 179.452,260.077 179.293,260.247 179.107 C 260.426 178.911,260.362 178.882,260.093 179.037 C 259.838 179.183,259.630 179.167,259.630 179.000 C 259.630 178.631,261.186 177.590,261.574 177.699 C 261.727 177.742,261.817 177.653,261.773 177.500 C 261.661 177.102,262.710 175.556,263.092 175.556 C 263.607 175.556,267.024 171.760,266.814 171.420 C 266.709 171.250,266.848 171.111,267.123 171.111 C 267.398 171.111,268.215 170.486,268.938 169.722 C 269.661 168.958,270.789 167.882,271.444 167.330 C 273.168 165.877,274.659 167.517,241.545 134.444 C 224.921 117.843,211.899 104.917,212.605 105.720 C 213.311 106.523,214.264 107.494,214.722 107.877 C 215.700 108.693,215.867 109.828,214.959 109.480 C 214.544 109.321,214.424 109.411,214.563 109.776 C 214.771 110.318,213.597 111.625,212.837 111.698 C 212.601 111.721,212.222 111.764,211.996 111.795 C 211.298 111.891,211.896 113.742,212.734 114.081 C 213.248 114.288,213.320 114.406,212.944 114.421 C 212.629 114.434,212.177 114.252,211.942 114.016 C 211.617 113.691,211.370 113.705,210.924 114.076 C 210.452 114.468,210.430 114.633,210.816 114.910 C 211.167 115.162,211.125 115.200,210.660 115.051 C 210.310 114.939,209.935 114.991,209.826 115.167 C 209.718 115.342,209.307 115.402,208.914 115.299 C 208.348 115.151,208.238 115.264,208.388 115.838 C 208.507 116.291,208.357 116.649,207.993 116.789 C 207.671 116.913,207.407 116.852,207.407 116.655 C 207.407 116.458,207.532 116.296,207.685 116.296 C 208.319 116.296,207.941 114.586,207.297 114.538 C 206.785 114.499,206.687 114.665,206.873 115.251 C 207.006 115.671,206.906 116.405,206.650 116.883 C 206.271 117.591,206.279 117.875,206.691 118.413 C 206.970 118.777,207.049 118.948,206.867 118.793 C 206.417 118.410,204.823 119.960,205.052 120.558 C 205.153 120.821,205.058 121.146,204.840 121.281 C 204.622 121.415,204.444 121.339,204.444 121.111 C 204.444 120.883,204.289 120.793,204.100 120.910 C 203.910 121.027,203.650 120.954,203.522 120.747 C 203.394 120.540,203.559 120.370,203.889 120.370 C 204.218 120.370,204.385 120.203,204.259 119.999 C 203.835 119.313,202.638 120.279,202.860 121.128 C 203.008 121.694,202.853 121.950,202.271 122.102 C 201.373 122.337,201.174 123.704,202.037 123.704 C 202.343 123.704,202.593 123.869,202.593 124.071 C 202.593 124.483,200.782 124.372,200.044 123.916 C 199.770 123.746,199.381 123.819,199.134 124.087 C 198.822 124.425,198.820 124.488,199.128 124.316 C 199.636 124.031,200.119 125.068,199.621 125.376 C 199.431 125.493,198.938 125.410,198.526 125.189 C 197.926 124.868,197.778 124.902,197.778 125.357 C 197.778 125.670,198.028 125.926,198.333 125.926 C 199.002 125.926,199.090 127.384,198.426 127.462 C 197.101 127.619,196.422 127.582,195.856 127.322 C 195.508 127.163,195.128 127.200,195.001 127.406 C 194.874 127.611,195.013 127.778,195.309 127.778 C 196.401 127.778,196.217 128.703,195.118 128.744 C 194.347 128.773,194.091 128.639,194.228 128.281 C 194.334 128.004,194.270 127.778,194.084 127.778 C 193.556 127.778,193.280 128.442,193.701 128.702 C 194.091 128.943,193.109 130.185,192.526 130.185 C 192.359 130.185,192.221 130.351,192.219 130.554 C 192.218 130.757,192.593 130.924,193.053 130.924 C 193.550 130.925,193.889 130.701,193.889 130.370 C 193.889 129.735,194.751 129.072,195.110 129.431 C 195.241 129.562,195.104 129.825,194.804 130.014 C 194.335 130.311,194.516 130.504,195.204 130.439 C 195.316 130.428,195.609 130.742,195.855 131.136 C 196.101 131.530,196.144 131.852,195.951 131.852 C 195.758 131.852,195.496 131.685,195.370 131.481 C 195.244 131.278,194.776 131.114,194.330 131.117 C 193.878 131.120,193.690 131.243,193.907 131.395 C 194.120 131.544,194.319 132.054,194.349 132.528 C 194.391 133.210,194.299 133.303,193.904 132.976 C 193.531 132.666,193.362 132.683,193.235 133.040 C 193.141 133.303,192.950 133.413,192.811 133.285 C 192.671 133.156,192.835 132.773,193.175 132.434 C 193.870 131.738,193.658 131.278,192.794 131.609 C 192.479 131.730,192.222 132.096,192.222 132.422 C 192.222 133.200,191.131 134.348,191.067 133.638 C 191.043 133.368,191.048 133.008,191.079 132.836 C 191.109 132.664,190.921 132.604,190.660 132.703 C 190.389 132.805,183.330 126.090,174.247 117.089 C 165.480 108.403,178.397 121.395,202.950 145.960 M212.222 108.459 C 212.222 108.880,212.329 108.891,212.778 108.519 C 213.234 108.140,213.333 108.169,213.333 108.680 C 213.333 109.023,213.500 109.200,213.704 109.074 C 214.460 108.607,214.083 107.785,213.148 107.863 C 212.636 107.905,212.222 108.172,212.222 108.459 M215.185 111.312 C 215.185 111.422,214.852 111.870,214.444 112.308 C 213.898 112.894,213.704 112.958,213.704 112.551 C 213.704 112.248,213.904 111.800,214.148 111.556 C 214.608 111.096,215.185 110.960,215.185 111.312 M208.729 114.102 C 209.179 114.599,209.478 114.715,209.573 114.430 C 209.654 114.187,209.491 113.844,209.212 113.667 C 208.288 113.081,208.022 113.321,208.729 114.102 M204.907 115.801 C 204.263 116.061,204.327 116.667,205.000 116.667 C 205.306 116.667,205.556 116.417,205.556 116.111 C 205.556 115.806,205.514 115.569,205.463 115.585 C 205.412 115.601,205.162 115.698,204.907 115.801 M211.019 115.811 C 210.662 115.904,210.370 116.117,210.370 116.284 C 210.370 116.451,210.120 116.683,209.815 116.801 C 209.102 117.074,209.111 116.868,209.841 116.138 C 210.161 115.817,210.703 115.575,211.045 115.599 C 211.599 115.637,211.596 115.660,211.019 115.811 M204.656 118.222 C 204.230 118.832,204.196 119.106,204.525 119.309 C 205.136 119.687,205.437 119.425,205.645 118.339 C 205.865 117.190,205.416 117.137,204.656 118.222 M209.577 117.972 C 209.696 118.091,209.089 118.146,208.230 118.096 C 207.370 118.045,206.667 117.870,206.667 117.708 C 206.667 117.387,209.225 117.620,209.577 117.972 M200.370 119.602 C 200.370 119.791,200.079 120.024,199.722 120.119 C 199.173 120.265,199.202 120.333,199.907 120.559 C 200.366 120.707,200.741 121.091,200.741 121.414 C 200.741 121.885,200.831 121.908,201.204 121.532 C 201.574 121.158,201.541 120.994,201.034 120.708 C 200.683 120.510,200.495 120.107,200.611 119.805 C 200.726 119.505,200.719 119.259,200.595 119.259 C 200.472 119.259,200.370 119.414,200.370 119.602 M161.019 135.928 C 172.711 147.702,175.852 151.244,173.981 150.544 C 173.112 150.219,171.293 151.709,172.045 152.130 C 172.556 152.416,172.604 152.632,172.281 153.189 C 172.057 153.574,171.869 153.743,171.863 153.566 C 171.857 153.388,171.594 153.457,171.279 153.718 C 170.868 154.059,170.827 154.269,171.133 154.458 C 171.860 154.907,171.191 156.248,170.350 156.028 C 169.796 155.883,169.712 155.717,170.012 155.356 C 170.309 154.998,170.241 154.833,169.742 154.704 C 169.127 154.544,169.126 154.527,169.722 154.487 C 170.079 154.464,170.370 154.293,170.370 154.107 C 170.370 153.921,170.162 153.813,169.907 153.866 C 168.775 154.102,168.121 154.582,168.175 155.138 C 168.281 156.231,168.155 156.393,167.575 155.911 C 167.117 155.531,167.099 155.374,167.482 155.131 C 167.821 154.917,167.832 154.824,167.522 154.820 C 166.626 154.809,166.583 155.675,167.447 156.339 C 167.934 156.714,168.125 157.024,167.870 157.029 C 167.616 157.033,167.402 157.245,167.396 157.500 C 167.375 158.313,165.589 159.378,165.028 158.912 C 164.466 158.445,164.092 159.380,164.073 161.296 C 164.065 162.164,163.981 162.285,163.691 161.852 C 163.369 161.371,163.246 161.393,162.771 162.015 C 162.234 162.718,162.222 162.716,162.222 161.923 C 162.222 161.358,162.448 161.111,162.963 161.111 C 163.864 161.111,163.987 159.818,163.118 159.484 C 162.204 159.133,162.093 159.213,162.616 159.843 C 163.018 160.327,163.009 160.484,162.569 160.763 C 161.798 161.251,161.557 161.191,161.366 160.463 C 161.239 159.975,161.186 160.021,161.154 160.648 C 161.130 161.106,161.278 161.481,161.481 161.481 C 161.685 161.481,161.852 161.658,161.852 161.874 C 161.852 162.089,161.716 162.182,161.549 162.079 C 161.382 161.976,161.031 162.189,160.769 162.554 C 160.442 163.008,159.984 163.157,159.313 163.030 C 158.435 162.863,158.386 162.908,158.842 163.459 C 159.243 163.945,159.250 164.074,158.873 164.074 C 158.610 164.074,158.502 164.181,158.633 164.312 C 158.764 164.443,159.125 164.339,159.435 164.082 C 159.990 163.622,160.067 163.700,160.158 164.815 C 160.184 165.130,160.520 165.343,160.935 165.306 C 161.619 165.246,161.612 165.286,160.835 165.920 C 160.364 166.303,159.682 166.514,159.265 166.405 C 158.794 166.282,158.444 166.431,158.295 166.819 C 158.114 167.290,157.946 167.331,157.549 167.001 C 157.207 166.717,157.037 166.707,157.037 166.970 C 157.037 167.186,157.204 167.467,157.407 167.593 C 158.050 167.990,157.811 168.426,156.852 168.609 C 156.240 168.726,155.926 168.619,155.926 168.294 C 155.926 167.982,155.694 167.890,155.297 168.043 C 154.903 168.194,154.833 168.340,155.111 168.432 C 155.356 168.514,155.556 168.743,155.556 168.942 C 155.556 169.140,155.408 169.212,155.227 169.100 C 155.047 168.989,154.816 169.216,154.714 169.606 C 154.594 170.064,154.688 170.254,154.980 170.142 C 155.229 170.046,155.432 170.206,155.432 170.496 C 155.432 170.891,155.185 170.953,154.448 170.742 C 153.432 170.450,152.986 171.798,153.987 172.132 C 154.232 172.213,154.096 172.571,153.650 173.017 C 153.238 173.429,152.790 173.645,152.654 173.499 C 152.519 173.352,152.616 173.158,152.870 173.067 C 153.401 172.877,153.506 171.852,152.994 171.852 C 152.807 171.852,152.599 172.017,152.531 172.219 C 152.463 172.421,151.949 172.624,151.389 172.670 C 150.368 172.754,150.147 172.986,150.628 173.468 C 151.122 173.962,151.042 174.815,150.501 174.815 C 150.184 174.815,150.067 174.636,150.221 174.387 C 150.377 174.134,150.323 174.060,150.089 174.204 C 149.871 174.339,149.636 174.323,149.567 174.169 C 149.498 174.015,148.943 173.478,148.332 172.977 C 147.722 172.475,153.471 178.350,161.109 186.031 L 174.995 199.999 167.053 207.947 L 159.111 215.895 171.680 228.505 L 184.250 241.115 192.217 233.154 L 200.185 225.193 202.963 227.977 C 206.265 231.288,206.882 231.701,207.612 231.095 C 207.902 230.854,208.046 230.505,207.931 230.319 C 207.817 230.134,207.943 230.027,208.213 230.083 C 208.483 230.139,208.658 229.964,208.602 229.695 C 208.546 229.425,208.642 229.292,208.816 229.400 C 209.269 229.680,211.481 227.564,211.481 226.851 C 211.481 226.522,211.623 226.340,211.795 226.446 C 211.968 226.553,212.582 226.146,213.161 225.542 C 213.739 224.939,214.441 224.444,214.721 224.444 C 215.000 224.444,215.144 224.308,215.041 224.140 C 214.818 223.780,216.116 222.593,216.733 222.593 C 216.968 222.593,217.051 222.483,216.917 222.349 C 216.783 222.215,216.869 221.869,217.109 221.580 C 217.448 221.171,217.427 220.975,217.013 220.696 C 216.593 220.413,216.637 220.358,217.222 220.437 C 218.149 220.562,218.891 220.119,218.748 219.525 C 218.689 219.277,218.707 219.190,218.788 219.331 C 218.870 219.472,219.178 219.495,219.473 219.382 C 219.866 219.231,219.943 219.359,219.760 219.866 C 219.623 220.245,219.644 220.436,219.806 220.289 C 219.968 220.143,220.119 219.722,220.143 219.353 C 220.208 218.324,221.757 216.551,222.382 216.791 C 222.766 216.938,222.858 216.824,222.696 216.402 C 222.527 215.961,222.604 215.884,222.993 216.110 C 223.282 216.278,223.395 216.279,223.244 216.112 C 222.731 215.546,223.722 214.799,224.461 215.194 C 224.909 215.434,225.218 215.431,225.370 215.186 C 225.496 214.982,225.464 214.803,225.300 214.789 C 225.135 214.774,225.333 214.604,225.741 214.411 C 226.431 214.083,226.425 214.070,225.648 214.217 C 225.190 214.304,224.815 214.253,224.815 214.104 C 224.815 213.583,226.539 212.218,226.846 212.497 C 227.016 212.651,227.045 212.584,226.909 212.346 C 226.510 211.649,227.530 211.525,228.304 212.178 C 229.124 212.869,228.862 212.215,227.814 210.955 C 227.489 210.563,227.432 210.366,227.689 210.516 C 227.978 210.685,228.519 210.357,229.111 209.653 C 229.637 209.028,230.219 208.610,230.404 208.725 C 230.589 208.839,230.741 208.768,230.741 208.567 C 230.741 208.366,231.016 207.926,231.352 207.590 C 231.921 207.021,231.719 206.732,228.488 203.488 L 225.012 199.997 230.428 194.536 C 235.255 189.668,236.368 188.148,235.109 188.148 C 234.866 188.148,234.884 188.341,235.158 188.671 C 235.396 188.958,235.458 189.276,235.294 189.377 C 234.846 189.654,233.439 188.386,233.614 187.863 C 233.697 187.612,233.567 187.407,233.324 187.407 C 232.510 187.407,228.846 183.589,229.352 183.268 C 229.801 182.983,229.639 182.891,228.549 182.812 C 228.260 182.792,227.947 182.544,227.853 182.262 C 227.749 181.951,227.846 181.851,228.100 182.007 C 228.330 182.150,228.519 182.078,228.519 181.849 C 228.519 181.600,228.219 181.527,227.776 181.667 C 227.287 181.822,226.959 181.709,226.816 181.336 C 226.696 181.024,226.297 180.673,225.929 180.556 C 225.560 180.439,225.154 179.926,225.026 179.416 C 224.898 178.906,224.658 178.571,224.494 178.673 C 224.329 178.775,223.557 178.205,222.778 177.407 C 221.999 176.609,221.196 176.059,220.994 176.184 C 220.792 176.309,220.736 176.233,220.871 176.015 C 221.006 175.797,220.906 175.534,220.650 175.430 C 220.298 175.287,220.320 175.146,220.741 174.849 C 221.207 174.519,221.174 174.455,220.536 174.450 C 220.117 174.447,219.216 173.868,218.532 173.163 C 217.849 172.458,217.150 171.967,216.978 172.073 C 216.807 172.179,216.667 172.099,216.667 171.896 C 216.667 171.692,216.836 171.421,217.043 171.293 C 217.250 171.165,217.317 170.894,217.191 170.691 C 217.055 170.470,216.674 170.584,216.240 170.977 C 215.536 171.614,215.527 171.606,215.885 170.662 C 216.167 169.921,216.134 169.646,215.744 169.497 C 215.463 169.389,215.161 169.500,215.072 169.743 C 214.984 169.986,214.697 169.727,214.434 169.167 C 214.170 168.606,213.805 168.148,213.622 168.148 C 213.439 168.148,213.393 167.981,213.519 167.778 C 213.644 167.574,213.529 167.405,213.263 167.402 C 212.906 167.398,212.924 167.291,213.333 166.996 C 213.789 166.669,213.762 166.638,213.180 166.828 C 212.703 166.985,212.142 166.744,211.459 166.089 L 210.446 165.119 208.834 166.531 C 207.948 167.307,205.639 169.486,203.704 171.372 L 200.185 174.801 187.823 162.493 C 181.023 155.724,175.591 150.419,175.750 150.705 C 175.945 151.055,175.898 151.138,175.607 150.958 C 175.368 150.810,175.250 150.566,175.343 150.414 C 175.437 150.263,169.231 143.900,161.553 136.273 L 147.593 122.407 161.019 135.928 M195.418 126.120 C 195.201 126.687,195.229 126.706,196.524 126.846 C 196.954 126.893,197.522 127.064,197.785 127.226 C 198.100 127.421,198.172 127.375,197.997 127.092 C 197.440 126.191,195.650 125.517,195.418 126.120 M193.704 126.640 C 193.704 126.828,193.412 127.059,193.056 127.152 C 192.652 127.258,192.787 127.338,193.414 127.364 C 194.167 127.397,194.367 127.267,194.208 126.852 C 193.969 126.229,193.704 126.118,193.704 126.640 M173.651 151.522 C 172.852 152.028,172.460 151.903,172.960 151.300 C 173.211 150.997,173.583 150.851,173.785 150.976 C 174.009 151.114,173.956 151.329,173.651 151.522 M170.396 152.151 C 170.382 152.418,170.215 152.540,170.026 152.423 C 169.836 152.306,169.575 152.381,169.447 152.589 C 169.318 152.798,169.467 153.066,169.779 153.186 C 170.666 153.526,171.039 153.216,170.717 152.407 C 170.555 152.000,170.411 151.885,170.396 152.151 M165.926 160.926 C 165.926 161.231,165.656 161.481,165.325 161.481 C 164.833 161.481,164.808 161.381,165.185 160.926 C 165.439 160.620,165.709 160.370,165.786 160.370 C 165.863 160.370,165.926 160.620,165.926 160.926 M161.481 163.272 C 161.481 163.754,161.041 164.075,160.683 163.853 C 160.300 163.616,160.630 162.963,161.133 162.963 C 161.325 162.963,161.481 163.102,161.481 163.272 M162.356 164.259 C 162.235 164.574,162.348 164.815,162.615 164.815 C 162.874 164.815,162.979 164.922,162.848 165.053 C 162.573 165.328,161.481 164.511,161.481 164.029 C 161.481 163.850,161.726 163.704,162.025 163.704 C 162.357 163.704,162.486 163.921,162.356 164.259 M156.385 165.282 C 155.986 165.781,156.003 167.238,156.412 167.647 C 156.552 167.787,156.667 167.467,156.667 166.935 C 156.667 165.899,157.208 165.303,157.589 165.920 C 157.717 166.127,157.988 166.296,158.192 166.296 C 158.396 166.296,158.468 166.144,158.353 165.958 C 158.238 165.771,158.353 165.526,158.609 165.411 C 158.865 165.297,158.741 165.237,158.333 165.278 C 157.926 165.319,157.403 165.233,157.172 165.087 C 156.940 164.942,156.586 165.029,156.385 165.282 M159.048 168.560 C 158.909 168.786,159.024 169.117,159.304 169.295 C 159.683 169.535,159.600 169.620,158.981 169.624 C 158.192 169.629,157.859 168.931,158.395 168.395 C 158.804 167.987,159.322 168.117,159.048 168.560 M151.755 168.777 C 151.396 168.869,151.202 169.107,151.325 169.305 C 151.463 169.528,151.754 169.494,152.091 169.215 C 152.419 168.942,152.589 168.921,152.521 169.160 C 152.458 169.377,152.574 169.572,152.778 169.593 C 152.981 169.613,153.148 169.435,153.148 169.198 C 153.148 168.690,152.663 168.543,151.755 168.777 M199.177 256.335 C 202.738 260.030,203.355 260.797,202.685 260.701 C 201.797 260.573,200.797 261.295,200.617 262.194 C 200.441 263.071,200.224 263.219,199.043 263.263 C 197.579 263.318,196.741 263.704,198.086 263.704 C 198.528 263.704,198.889 263.870,198.889 264.074 C 198.889 264.278,198.681 264.447,198.426 264.450 C 198.117 264.454,198.148 264.575,198.519 264.815 C 199.008 265.131,198.803 265.335,198.091 265.241 C 197.675 265.186,197.420 266.261,197.794 266.491 C 197.989 266.612,198.146 266.909,198.142 267.151 C 198.139 267.418,197.992 267.372,197.772 267.037 C 197.469 266.575,197.353 266.566,197.082 266.986 C 196.807 267.413,196.725 267.413,196.556 266.986 C 196.440 266.696,196.342 266.835,196.326 267.315 C 196.305 267.896,196.509 268.148,196.997 268.148 C 197.383 268.148,197.810 268.440,197.945 268.796 C 198.143 269.316,198.100 269.353,197.726 268.981 C 197.469 268.727,196.973 268.519,196.623 268.519 C 196.274 268.519,195.904 268.727,195.801 268.981 C 195.698 269.236,195.601 269.069,195.585 268.611 C 195.569 268.153,195.399 267.778,195.207 267.778 C 194.688 267.778,194.379 268.435,194.829 268.585 C 195.046 268.657,194.895 269.060,194.489 269.497 C 193.986 270.036,193.879 270.398,194.144 270.663 C 194.355 270.874,194.397 271.258,194.237 271.517 C 194.022 271.866,193.874 271.802,193.666 271.272 C 193.418 270.639,193.379 270.664,193.330 271.481 C 193.300 271.991,193.190 272.198,193.087 271.942 C 192.847 271.347,192.197 271.724,192.425 272.327 C 192.618 272.836,190.939 274.874,189.815 275.494 C 189.407 275.719,189.282 275.908,189.537 275.915 C 190.262 275.932,190.079 276.592,189.278 276.846 C 188.872 276.975,188.640 277.293,188.747 277.572 C 188.864 277.877,188.533 278.218,187.895 278.450 C 187.321 278.659,187.060 278.844,187.315 278.860 C 187.875 278.895,187.943 280.000,187.386 280.000 C 187.170 280.000,187.096 279.833,187.222 279.630 C 187.348 279.426,187.188 279.259,186.866 279.259 C 186.544 279.259,186.091 279.676,185.859 280.185 C 185.627 280.694,185.302 281.111,185.137 281.111 C 184.973 281.111,184.928 281.344,185.037 281.629 C 185.146 281.914,185.032 282.273,184.783 282.427 C 184.493 282.606,184.425 282.553,184.594 282.279 C 184.740 282.044,184.672 281.852,184.444 281.852 C 184.217 281.852,184.116 281.713,184.221 281.543 C 184.326 281.373,184.172 281.235,183.878 281.235 C 183.485 281.235,183.449 281.360,183.741 281.712 C 183.959 281.975,184.030 282.364,183.899 282.576 C 183.760 282.802,184.016 282.965,184.515 282.969 C 185.108 282.973,185.222 283.068,184.889 283.280 C 184.624 283.448,184.380 283.943,184.347 284.381 C 184.311 284.859,184.153 285.042,183.950 284.839 C 183.765 284.654,183.356 284.601,183.042 284.722 C 182.623 284.882,182.556 284.801,182.788 284.415 C 183.059 283.966,183.013 283.963,182.479 284.397 C 182.134 284.677,181.852 285.135,181.852 285.416 C 181.852 285.696,181.685 285.926,181.481 285.926 C 181.278 285.926,181.098 286.301,181.082 286.759 C 181.066 287.218,180.969 287.384,180.866 287.130 C 180.763 286.875,180.486 286.667,180.250 286.667 C 180.015 286.667,176.645 283.542,172.763 279.722 C 168.881 275.903,176.009 283.082,188.604 295.675 C 209.776 316.846,212.504 319.367,212.354 317.632 C 212.310 317.130,212.403 317.097,212.838 317.457 C 213.133 317.702,213.329 317.750,213.272 317.563 C 213.099 316.993,214.499 315.175,214.913 315.431 C 215.138 315.570,215.189 315.491,215.035 315.242 C 214.890 315.007,214.942 314.815,215.152 314.815 C 215.361 314.815,215.432 314.552,215.308 314.231 C 215.149 313.816,215.273 313.683,215.739 313.769 C 216.196 313.852,216.439 313.609,216.541 312.963 C 216.622 312.454,216.851 311.981,217.050 311.913 C 217.249 311.844,217.315 311.632,217.197 311.441 C 217.079 311.249,217.119 311.117,217.287 311.146 C 218.066 311.281,218.448 311.051,218.636 310.333 C 218.747 309.905,219.005 309.658,219.208 309.783 C 219.411 309.908,219.630 309.634,219.696 309.172 C 219.761 308.711,220.190 308.169,220.648 307.968 C 221.106 307.767,221.481 307.329,221.481 306.995 C 221.481 306.660,221.736 306.176,222.046 305.918 C 222.356 305.661,222.543 305.383,222.461 305.301 C 222.176 305.016,224.506 302.963,225.121 302.957 C 225.615 302.953,225.637 302.886,225.233 302.630 C 224.819 302.368,224.842 302.244,225.359 301.954 C 225.707 301.760,225.998 301.448,226.004 301.263 C 226.023 300.735,227.684 298.889,228.140 298.889 C 228.366 298.889,228.517 298.681,228.476 298.426 C 228.341 297.585,228.957 296.667,229.658 296.667 C 230.089 296.667,230.274 296.477,230.153 296.160 C 230.036 295.855,230.276 295.570,230.757 295.444 C 231.221 295.323,231.449 295.062,231.302 294.824 C 230.974 294.293,231.815 293.267,232.321 293.580 C 232.534 293.711,232.600 293.645,232.470 293.434 C 232.339 293.223,232.578 292.610,233.001 292.072 L 233.771 291.094 230.057 287.121 C 228.015 284.936,219.380 276.231,210.868 267.778 C 202.356 259.324,197.095 254.175,199.177 256.335 M157.387 267.685 L 156.111 269.074 157.500 267.798 C 158.793 266.610,159.059 266.296,158.776 266.296 C 158.714 266.296,158.089 266.921,157.387 267.685 M191.567 270.741 C 191.567 271.454,191.644 271.745,191.737 271.389 C 191.830 271.032,191.830 270.449,191.737 270.093 C 191.644 269.736,191.567 270.028,191.567 270.741 M195.627 270.791 C 195.486 271.754,195.396 271.845,195.105 271.325 C 194.728 270.652,194.955 269.630,195.480 269.630 C 195.655 269.630,195.721 270.152,195.627 270.791 M190.553 272.226 C 190.429 272.428,190.503 272.593,190.719 272.593 C 190.935 272.593,191.111 272.754,191.111 272.951 C 191.111 273.149,190.819 273.207,190.463 273.082 C 189.932 272.895,189.899 272.945,190.280 273.356 C 190.671 273.777,190.830 273.771,191.271 273.317 C 191.715 272.861,191.717 272.707,191.288 272.319 C 190.968 272.029,190.696 271.995,190.553 272.226 M194.074 273.507 C 194.074 273.838,193.857 273.968,193.519 273.838 C 193.213 273.720,192.963 273.476,192.963 273.294 C 192.963 273.112,193.213 272.963,193.519 272.963 C 193.824 272.963,194.074 273.208,194.074 273.507 M153.333 292.407 C 154.646 293.731,155.803 294.815,155.905 294.815 C 156.006 294.815,155.016 293.731,153.704 292.407 C 152.391 291.083,151.234 290.000,151.133 290.000 C 151.031 290.000,152.021 291.083,153.333 292.407 M159.993 298.981 C 163.599 302.680,164.074 303.131,164.074 302.864 C 164.074 302.809,162.282 301.018,160.093 298.882 L 156.111 295.000 159.993 298.981 M165.983 305.133 C 166.113 306.146,165.837 307.037,165.394 307.037 C 164.991 307.037,164.908 307.376,165.054 308.426 C 165.185 309.370,165.133 309.654,164.892 309.312 C 164.503 308.761,162.963 309.052,162.963 309.676 C 162.963 309.878,162.794 309.939,162.587 309.811 C 162.380 309.683,162.322 309.398,162.459 309.176 C 162.600 308.948,162.536 308.880,162.311 309.019 C 162.093 309.154,161.842 309.055,161.753 308.799 C 161.664 308.543,161.608 308.875,161.629 309.536 C 161.650 310.198,161.802 310.739,161.966 310.740 C 162.131 310.740,162.172 310.893,162.057 311.079 C 161.941 311.266,162.057 311.503,162.313 311.606 C 162.784 311.796,162.017 311.932,160.457 311.936 C 159.721 311.938,159.709 311.958,160.365 312.106 C 160.775 312.198,161.111 312.429,161.111 312.618 C 161.111 312.808,161.444 312.963,161.852 312.963 C 163.165 312.963,162.636 313.518,161.295 313.546 C 160.583 313.562,160.000 313.437,160.000 313.269 C 160.000 313.100,159.833 312.963,159.630 312.963 C 159.426 312.963,159.257 313.338,159.254 313.796 C 159.247 315.054,158.842 316.311,158.511 316.107 C 158.350 316.007,158.300 315.550,158.400 315.092 C 158.535 314.478,158.488 314.393,158.222 314.770 C 158.023 315.050,157.675 315.166,157.449 315.026 C 156.763 314.602,156.987 315.269,157.833 316.170 L 158.629 317.017 157.463 316.682 C 156.751 316.478,156.296 316.482,156.296 316.693 C 156.296 316.882,156.644 317.037,157.068 317.037 C 158.050 317.037,157.805 317.923,156.781 318.075 C 155.931 318.201,155.033 319.827,155.448 320.491 C 155.862 321.153,155.901 321.852,155.523 321.852 C 155.337 321.852,155.185 321.719,155.185 321.556 C 155.185 321.038,152.652 321.534,152.437 322.094 C 152.323 322.389,152.378 322.540,152.558 322.429 C 152.738 322.318,152.981 322.476,153.098 322.780 C 153.238 323.146,153.082 323.333,152.638 323.333 C 152.268 323.333,151.807 323.688,151.613 324.122 C 151.287 324.852,151.215 324.866,150.657 324.308 C 149.917 323.568,149.372 323.503,149.973 324.226 C 150.240 324.548,150.269 324.834,150.050 324.969 C 149.853 325.091,149.618 324.980,149.527 324.725 C 149.435 324.469,149.241 324.370,149.095 324.505 C 148.690 324.880,150.021 326.694,150.503 326.424 C 150.788 326.265,150.805 326.313,150.556 326.571 C 149.923 327.224,148.372 327.575,148.728 326.984 C 148.979 326.568,148.923 326.569,148.404 326.990 C 147.603 327.640,147.609 328.050,148.426 328.263 C 148.901 328.387,148.846 328.444,148.219 328.476 C 147.749 328.499,147.452 328.661,147.559 328.834 C 147.666 329.008,147.528 329.459,147.252 329.837 C 146.975 330.215,146.830 330.782,146.928 331.096 C 147.073 331.560,147.039 331.571,146.743 331.156 C 146.226 330.431,145.452 331.041,145.690 331.986 C 145.872 332.708,145.847 332.722,145.408 332.135 C 144.849 331.389,144.444 331.646,144.444 332.749 C 144.444 333.683,174.675 364.074,175.604 364.074 C 175.935 364.074,176.413 363.824,176.667 363.519 C 176.955 363.171,176.981 362.963,176.736 362.963 C 176.520 362.963,176.791 362.497,177.338 361.926 C 177.886 361.356,178.458 360.950,178.611 361.022 C 178.869 361.146,179.053 360.231,178.918 359.492 C 178.885 359.314,179.124 359.270,179.449 359.395 C 179.773 359.519,179.957 359.490,179.858 359.330 C 179.621 358.946,180.013 358.429,180.926 357.923 C 181.333 357.697,181.674 357.280,181.684 356.997 C 181.693 356.713,181.892 356.520,182.126 356.567 C 182.723 356.687,184.187 354.558,183.710 354.263 C 183.503 354.135,183.333 353.864,183.333 353.660 C 183.333 353.456,183.481 353.381,183.662 353.493 C 183.842 353.604,184.188 353.457,184.430 353.166 C 184.671 352.875,185.148 352.726,185.490 352.835 C 185.969 352.987,185.996 352.951,185.611 352.675 C 185.080 352.295,186.129 350.593,186.683 350.936 C 186.823 351.023,186.878 350.578,186.804 349.948 C 186.690 348.962,186.749 348.867,187.229 349.265 C 187.691 349.649,187.954 349.548,188.760 348.678 C 189.296 348.100,189.554 347.567,189.335 347.494 C 189.086 347.411,189.161 347.098,189.534 346.663 C 189.863 346.278,190.295 346.064,190.494 346.187 C 190.693 346.310,190.741 346.225,190.601 345.999 C 190.453 345.760,190.817 345.343,191.469 345.006 C 192.658 344.392,193.007 343.938,191.991 344.328 C 191.461 344.532,191.467 344.440,192.046 343.557 C 192.407 343.006,192.898 342.631,193.138 342.723 C 193.398 342.823,193.551 342.570,193.516 342.098 C 193.483 341.649,193.846 340.999,194.353 340.601 C 195.047 340.055,195.137 339.827,194.753 339.584 C 194.482 339.412,194.384 339.247,194.537 339.219 C 194.690 339.190,194.940 339.145,195.093 339.118 C 195.710 339.009,197.016 337.880,196.788 337.652 C 196.653 337.517,196.750 337.407,197.002 337.407 C 197.255 337.407,197.408 337.163,197.342 336.864 C 197.225 336.335,165.923 304.661,165.983 305.133 M163.654 306.485 C 163.542 306.687,163.556 307.267,163.685 307.774 C 163.815 308.281,164.012 308.531,164.124 308.330 C 164.236 308.128,164.222 307.548,164.093 307.041 C 163.963 306.534,163.766 306.284,163.654 306.485 M153.206 320.833 C 153.452 321.232,154.731 321.176,154.991 320.755 C 155.117 320.551,154.744 320.432,154.123 320.477 C 153.525 320.520,153.112 320.681,153.206 320.833 M145.780 329.784 C 145.904 330.106,146.168 330.370,146.367 330.370 C 146.854 330.370,146.549 329.529,145.995 329.344 C 145.724 329.254,145.642 329.423,145.780 329.784 M183.117 355.278 C 182.731 355.736,182.372 356.181,182.319 356.265 C 182.266 356.350,182.222 356.071,182.222 355.644 C 182.222 355.217,182.513 354.793,182.870 354.700 C 183.227 354.607,183.586 354.511,183.669 354.487 C 183.751 354.464,183.503 354.819,183.117 355.278 " stroke="none" fill="#75accb" fill-rule="evenodd"></path><path id="path2" d="M185.000 19.670 C 150.003 22.358,130.856 62.960,150.687 92.434 C 153.255 96.250,189.558 132.871,190.572 132.668 C 190.875 132.607,191.100 132.690,191.073 132.853 C 191.046 133.015,191.043 133.368,191.067 133.638 C 191.131 134.348,192.222 133.200,192.222 132.422 C 192.222 132.096,192.479 131.730,192.794 131.609 C 193.658 131.278,193.870 131.738,193.175 132.434 C 192.835 132.773,192.671 133.156,192.811 133.285 C 192.950 133.413,193.141 133.303,193.235 133.040 C 193.362 132.683,193.531 132.666,193.904 132.976 C 194.299 133.303,194.391 133.210,194.349 132.528 C 194.319 132.054,194.120 131.544,193.907 131.395 C 193.690 131.243,193.878 131.120,194.330 131.117 C 194.776 131.114,195.244 131.278,195.370 131.481 C 195.496 131.685,195.758 131.852,195.951 131.852 C 196.144 131.852,196.101 131.530,195.855 131.136 C 195.609 130.742,195.316 130.428,195.204 130.439 C 194.516 130.504,194.335 130.311,194.804 130.014 C 195.104 129.825,195.241 129.562,195.110 129.431 C 194.751 129.072,193.889 129.735,193.889 130.370 C 193.889 130.701,193.550 130.925,193.053 130.924 C 192.593 130.924,192.218 130.757,192.219 130.554 C 192.221 130.351,192.359 130.185,192.526 130.185 C 193.109 130.185,194.091 128.943,193.701 128.702 C 193.280 128.442,193.556 127.778,194.084 127.778 C 194.270 127.778,194.334 128.004,194.228 128.281 C 194.091 128.639,194.347 128.773,195.118 128.744 C 196.217 128.703,196.401 127.778,195.309 127.778 C 195.013 127.778,194.874 127.611,195.001 127.406 C 195.128 127.200,195.508 127.163,195.856 127.322 C 196.422 127.582,197.101 127.619,198.426 127.462 C 199.090 127.384,199.002 125.926,198.333 125.926 C 198.028 125.926,197.778 125.670,197.778 125.357 C 197.778 124.902,197.926 124.868,198.526 125.189 C 198.938 125.410,199.431 125.493,199.621 125.376 C 200.119 125.068,199.636 124.031,199.128 124.316 C 198.820 124.488,198.822 124.425,199.134 124.087 C 199.381 123.819,199.770 123.746,200.044 123.916 C 200.782 124.372,202.593 124.483,202.593 124.071 C 202.593 123.869,202.343 123.704,202.037 123.704 C 201.174 123.704,201.373 122.337,202.271 122.102 C 202.853 121.950,203.008 121.694,202.860 121.128 C 202.638 120.279,203.835 119.313,204.259 119.999 C 204.385 120.203,204.218 120.370,203.889 120.370 C 203.559 120.370,203.394 120.540,203.522 120.747 C 203.650 120.954,203.910 121.027,204.100 120.910 C 204.289 120.793,204.444 120.883,204.444 121.111 C 204.444 121.339,204.622 121.415,204.840 121.281 C 205.058 121.146,205.153 120.821,205.052 120.558 C 204.823 119.960,206.417 118.410,206.867 118.793 C 207.049 118.948,206.970 118.777,206.691 118.413 C 206.279 117.875,206.271 117.591,206.650 116.883 C 206.906 116.405,207.006 115.671,206.873 115.251 C 206.687 114.665,206.785 114.499,207.297 114.538 C 207.941 114.586,208.319 116.296,207.685 116.296 C 207.532 116.296,207.407 116.458,207.407 116.655 C 207.407 116.852,207.671 116.913,207.993 116.789 C 208.357 116.649,208.507 116.291,208.388 115.838 C 208.238 115.264,208.348 115.151,208.914 115.299 C 209.307 115.402,209.718 115.342,209.826 115.167 C 209.935 114.991,210.310 114.939,210.660 115.051 C 211.125 115.200,211.167 115.162,210.816 114.910 C 210.430 114.633,210.452 114.468,210.924 114.076 C 211.370 113.705,211.617 113.691,211.942 114.016 C 212.177 114.252,212.629 114.434,212.944 114.421 C 213.320 114.406,213.248 114.288,212.734 114.081 C 211.896 113.742,211.298 111.891,211.996 111.795 C 212.222 111.764,212.601 111.721,212.837 111.698 C 213.597 111.625,214.771 110.318,214.563 109.776 C 214.424 109.411,214.544 109.321,214.959 109.480 C 217.283 110.372,216.479 109.498,195.926 88.798 C 178.024 70.767,178.333 71.166,178.333 66.111 C 178.333 59.407,182.680 54.990,189.259 55.008 C 193.382 55.019,194.751 55.794,200.512 61.376 C 213.764 74.217,213.272 73.781,212.789 72.259 C 212.620 71.725,212.839 71.435,213.695 71.056 C 214.328 70.776,214.745 70.353,214.645 70.093 C 214.540 69.819,214.765 69.630,215.197 69.630 C 215.598 69.630,215.926 69.796,215.926 70.000 C 215.926 70.750,216.484 70.343,216.561 69.537 C 216.605 69.079,216.717 68.370,216.810 67.963 C 216.904 67.556,216.993 67.093,217.009 66.936 C 217.024 66.778,217.480 66.940,218.022 67.295 L 219.006 67.940 218.808 66.902 C 218.639 66.016,218.714 65.891,219.320 66.049 C 219.854 66.189,219.983 66.081,219.838 65.617 C 219.733 65.278,219.807 64.750,220.003 64.444 C 220.240 64.075,220.361 64.044,220.365 64.352 C 220.368 64.606,220.547 64.815,220.763 64.815 C 220.978 64.815,221.052 64.648,220.926 64.444 C 220.800 64.241,220.874 64.053,221.089 64.028 C 221.305 64.002,221.690 63.961,221.944 63.935 C 222.199 63.910,222.407 63.694,222.407 63.457 C 222.407 63.219,222.522 62.910,222.662 62.771 C 222.801 62.631,222.767 62.125,222.585 61.646 C 222.322 60.954,222.364 60.818,222.792 60.982 C 223.087 61.096,223.237 61.338,223.124 61.520 C 223.011 61.703,223.047 62.059,223.203 62.311 C 223.396 62.623,223.555 62.483,223.698 61.876 C 223.814 61.383,224.117 60.939,224.371 60.889 C 224.625 60.838,224.662 60.881,224.454 60.985 C 223.880 61.269,223.999 61.852,224.630 61.852 C 224.935 61.852,225.185 61.602,225.185 61.296 C 225.185 60.356,225.247 60.218,226.159 59.135 C 226.644 58.558,226.975 57.975,226.892 57.839 C 226.810 57.703,227.142 57.293,227.631 56.927 C 228.392 56.357,228.519 56.343,228.519 56.835 C 228.519 57.150,228.352 57.407,228.148 57.407 C 227.511 57.407,227.742 57.948,228.611 58.489 C 229.369 58.961,229.399 58.953,228.945 58.403 C 228.522 57.891,228.536 57.707,229.041 57.203 C 229.368 56.875,229.542 56.454,229.426 56.266 C 229.310 56.079,229.392 55.926,229.608 55.926 C 229.823 55.926,230.000 55.658,230.000 55.331 C 230.000 54.954,230.204 54.814,230.556 54.949 C 231.231 55.208,231.279 54.772,230.648 54.098 C 230.268 53.692,230.339 53.640,231.041 53.810 C 231.590 53.942,231.969 53.828,232.099 53.492 C 232.209 53.203,232.477 53.077,232.694 53.211 C 232.942 53.364,233.001 53.225,232.852 52.839 C 232.722 52.500,232.787 52.222,232.996 52.222 C 233.206 52.222,233.271 52.051,233.142 51.843 C 233.013 51.634,233.045 51.500,233.213 51.546 C 234.071 51.778,235.214 51.037,234.789 50.524 C 234.204 49.819,235.293 49.790,235.995 50.492 C 236.404 50.901,236.497 50.691,236.546 49.242 L 236.606 47.499 227.470 38.442 C 213.970 25.058,206.008 20.561,194.450 19.790 C 192.919 19.688,191.000 19.555,190.185 19.495 C 189.370 19.435,187.037 19.513,185.000 19.670 M235.926 49.208 C 235.926 49.765,235.731 49.856,234.907 49.682 C 233.978 49.485,233.961 49.455,234.722 49.337 C 235.181 49.266,235.556 49.053,235.556 48.863 C 235.556 48.674,235.639 48.519,235.741 48.519 C 235.843 48.519,235.926 48.829,235.926 49.208 M229.630 54.815 C 229.630 55.226,229.383 55.556,229.074 55.556 C 228.404 55.556,228.358 55.123,228.963 54.519 C 229.561 53.921,229.630 53.951,229.630 54.815 M102.222 101.652 C 101.917 101.725,100.417 101.987,98.889 102.235 C 71.786 106.621,54.276 135.625,62.673 162.222 C 66.099 173.073,66.685 173.772,102.561 209.741 C 119.588 226.812,133.591 240.857,133.680 240.952 C 133.769 241.047,131.506 243.497,128.652 246.396 C 109.890 265.450,106.898 288.178,120.475 308.519 C 122.585 311.679,144.167 333.676,144.378 332.881 C 144.769 331.404,144.827 331.356,145.362 332.073 C 145.870 332.752,145.882 332.749,145.690 331.986 C 145.452 331.041,146.226 330.431,146.743 331.156 C 147.039 331.571,147.073 331.560,146.928 331.096 C 146.830 330.782,146.975 330.215,147.252 329.837 C 147.528 329.459,147.666 329.008,147.559 328.834 C 147.452 328.661,147.749 328.499,148.219 328.476 C 148.846 328.444,148.901 328.387,148.426 328.263 C 147.609 328.050,147.603 327.640,148.404 326.990 C 148.923 326.569,148.979 326.568,148.728 326.984 C 148.372 327.575,149.923 327.224,150.556 326.571 C 150.805 326.313,150.788 326.265,150.503 326.424 C 150.021 326.694,148.690 324.880,149.095 324.505 C 149.241 324.370,149.435 324.469,149.527 324.725 C 149.618 324.980,149.853 325.091,150.050 324.969 C 150.269 324.834,150.240 324.548,149.973 324.226 C 149.372 323.503,149.917 323.568,150.657 324.308 C 151.215 324.866,151.287 324.852,151.613 324.122 C 151.807 323.688,152.268 323.333,152.638 323.333 C 153.082 323.333,153.238 323.146,153.098 322.780 C 152.981 322.476,152.738 322.318,152.558 322.429 C 152.378 322.540,152.323 322.389,152.437 322.094 C 152.652 321.534,155.185 321.038,155.185 321.556 C 155.185 321.719,155.337 321.852,155.523 321.852 C 155.901 321.852,155.862 321.153,155.448 320.491 C 155.033 319.827,155.931 318.201,156.781 318.075 C 157.805 317.923,158.050 317.037,157.068 317.037 C 156.644 317.037,156.296 316.882,156.296 316.693 C 156.296 316.482,156.751 316.478,157.463 316.682 L 158.629 317.017 157.833 316.170 C 156.987 315.269,156.763 314.602,157.449 315.026 C 157.675 315.166,158.023 315.050,158.222 314.770 C 158.488 314.393,158.535 314.478,158.400 315.092 C 158.300 315.550,158.350 316.007,158.511 316.107 C 158.842 316.311,159.247 315.054,159.254 313.796 C 159.257 313.338,159.426 312.963,159.630 312.963 C 159.833 312.963,160.000 313.100,160.000 313.269 C 160.000 313.437,160.583 313.562,161.295 313.546 C 162.636 313.518,163.165 312.963,161.852 312.963 C 161.444 312.963,161.111 312.808,161.111 312.618 C 161.111 312.429,160.736 312.193,160.278 312.094 C 159.508 311.929,159.515 311.916,160.370 311.924 C 161.960 311.941,162.801 311.803,162.313 311.606 C 162.057 311.503,161.941 311.266,162.057 311.079 C 162.172 310.893,162.131 310.740,161.966 310.740 C 161.802 310.739,161.650 310.198,161.629 309.536 C 161.608 308.875,161.664 308.543,161.753 308.799 C 161.842 309.055,162.093 309.154,162.311 309.019 C 162.536 308.880,162.600 308.948,162.459 309.176 C 162.322 309.398,162.380 309.683,162.587 309.811 C 162.794 309.939,162.963 309.878,162.963 309.676 C 162.963 309.052,164.503 308.761,164.892 309.312 C 165.133 309.654,165.185 309.370,165.054 308.426 C 164.908 307.376,164.991 307.037,165.394 307.037 C 165.686 307.037,165.926 306.694,165.926 306.274 C 165.926 305.774,166.085 305.600,166.389 305.770 C 166.644 305.912,162.995 302.130,158.281 297.366 C 148.331 287.310,147.974 286.785,147.967 282.222 C 147.961 277.969,148.581 276.859,154.258 270.941 L 158.862 266.142 159.840 267.053 C 160.378 267.553,165.071 272.130,170.268 277.222 C 175.466 282.315,179.907 286.548,180.137 286.630 C 180.367 286.711,180.678 286.961,180.828 287.185 C 180.984 287.419,181.102 287.238,181.105 286.759 C 181.109 286.301,181.278 285.926,181.481 285.926 C 181.685 285.926,181.852 285.696,181.852 285.416 C 181.852 285.135,182.134 284.677,182.479 284.397 C 183.013 283.963,183.059 283.966,182.788 284.415 C 182.556 284.801,182.623 284.882,183.042 284.722 C 183.356 284.601,183.765 284.654,183.950 284.839 C 184.153 285.042,184.311 284.859,184.347 284.381 C 184.380 283.943,184.624 283.448,184.889 283.280 C 185.222 283.068,185.108 282.973,184.515 282.969 C 184.016 282.965,183.760 282.802,183.899 282.576 C 184.030 282.364,183.959 281.975,183.741 281.712 C 183.449 281.360,183.485 281.235,183.878 281.235 C 184.172 281.235,184.326 281.373,184.221 281.543 C 184.116 281.713,184.217 281.852,184.444 281.852 C 184.672 281.852,184.740 282.044,184.594 282.279 C 184.425 282.553,184.493 282.606,184.783 282.427 C 185.032 282.273,185.146 281.914,185.037 281.629 C 184.928 281.344,184.973 281.111,185.137 281.111 C 185.302 281.111,185.627 280.694,185.859 280.185 C 186.091 279.676,186.544 279.259,186.866 279.259 C 187.188 279.259,187.348 279.426,187.222 279.630 C 187.096 279.833,187.170 280.000,187.386 280.000 C 187.943 280.000,187.875 278.895,187.315 278.860 C 187.060 278.844,187.321 278.659,187.895 278.450 C 188.533 278.218,188.864 277.877,188.747 277.572 C 188.640 277.293,188.872 276.975,189.278 276.846 C 190.079 276.592,190.262 275.932,189.537 275.915 C 189.282 275.908,189.407 275.719,189.815 275.494 C 190.939 274.874,192.618 272.836,192.425 272.327 C 192.197 271.724,192.847 271.347,193.087 271.942 C 193.190 272.198,193.300 271.991,193.330 271.481 C 193.379 270.664,193.418 270.639,193.666 271.272 C 193.874 271.802,194.022 271.866,194.237 271.517 C 194.397 271.258,194.355 270.874,194.144 270.663 C 193.879 270.398,193.986 270.036,194.489 269.497 C 194.895 269.060,195.046 268.657,194.829 268.585 C 194.379 268.435,194.688 267.778,195.207 267.778 C 195.399 267.778,195.569 268.153,195.585 268.611 C 195.601 269.069,195.698 269.236,195.801 268.981 C 195.904 268.727,196.274 268.519,196.623 268.519 C 196.973 268.519,197.469 268.727,197.726 268.981 C 198.100 269.353,198.143 269.316,197.945 268.796 C 197.810 268.440,197.383 268.148,196.997 268.148 C 196.516 268.148,196.298 267.888,196.302 267.315 C 196.306 266.703,196.393 266.616,196.628 266.986 C 196.898 267.413,196.979 267.413,197.149 266.986 C 197.315 266.572,197.422 266.581,197.744 267.037 C 197.986 267.379,198.139 267.423,198.142 267.151 C 198.146 266.909,197.989 266.612,197.794 266.491 C 197.420 266.261,197.675 265.186,198.091 265.241 C 198.803 265.335,199.008 265.131,198.519 264.815 C 198.148 264.575,198.117 264.454,198.426 264.450 C 198.681 264.447,198.889 264.278,198.889 264.074 C 198.889 263.870,198.528 263.704,198.086 263.704 C 196.741 263.704,197.579 263.318,199.043 263.263 C 200.224 263.219,200.441 263.071,200.617 262.194 C 200.799 261.284,201.809 260.566,202.708 260.708 C 203.918 260.900,193.550 250.334,142.411 199.259 C 93.462 150.372,96.127 153.304,96.124 148.333 C 96.120 141.722,100.735 137.037,107.249 137.037 C 112.007 137.037,112.214 137.201,131.035 155.926 C 148.412 173.214,150.076 174.815,150.676 174.815 C 151.078 174.815,151.044 173.884,150.628 173.468 C 150.147 172.986,150.368 172.754,151.389 172.670 C 151.949 172.624,152.463 172.421,152.531 172.219 C 152.599 172.017,152.807 171.852,152.994 171.852 C 153.506 171.852,153.401 172.877,152.870 173.067 C 152.616 173.158,152.519 173.352,152.654 173.499 C 152.790 173.645,153.238 173.429,153.650 173.017 C 154.096 172.571,154.232 172.213,153.987 172.132 C 152.986 171.798,153.432 170.450,154.448 170.742 C 155.185 170.953,155.432 170.891,155.432 170.496 C 155.432 170.206,155.229 170.046,154.980 170.142 C 154.688 170.254,154.594 170.064,154.714 169.606 C 154.816 169.216,155.047 168.989,155.227 169.100 C 155.408 169.212,155.556 169.140,155.556 168.942 C 155.556 168.743,155.356 168.514,155.111 168.432 C 154.833 168.340,154.903 168.194,155.297 168.043 C 155.694 167.890,155.926 167.982,155.926 168.294 C 155.926 168.619,156.240 168.726,156.852 168.609 C 157.811 168.426,158.050 167.990,157.407 167.593 C 157.204 167.467,157.037 167.186,157.037 166.970 C 157.037 166.707,157.207 166.717,157.549 167.001 C 157.946 167.331,158.114 167.290,158.295 166.819 C 158.444 166.431,158.794 166.282,159.265 166.405 C 159.682 166.514,160.364 166.303,160.835 165.920 C 161.612 165.286,161.619 165.246,160.935 165.306 C 160.520 165.343,160.184 165.130,160.158 164.815 C 160.067 163.700,159.990 163.622,159.435 164.082 C 159.125 164.339,158.764 164.443,158.633 164.312 C 158.502 164.181,158.610 164.074,158.873 164.074 C 159.250 164.074,159.243 163.945,158.842 163.459 C 158.386 162.908,158.435 162.863,159.313 163.030 C 159.984 163.157,160.442 163.008,160.769 162.554 C 161.031 162.189,161.382 161.976,161.549 162.079 C 161.716 162.182,161.852 162.089,161.852 161.874 C 161.852 161.658,161.685 161.481,161.481 161.481 C 161.278 161.481,161.130 161.106,161.154 160.648 C 161.186 160.021,161.239 159.975,161.366 160.463 C 161.557 161.191,161.798 161.251,162.569 160.763 C 163.031 160.471,163.031 160.341,162.569 159.774 C 162.092 159.189,162.108 159.147,162.715 159.375 C 163.089 159.515,163.464 159.630,163.549 159.630 C 163.634 159.630,163.704 159.963,163.704 160.370 C 163.704 160.864,163.457 161.111,162.963 161.111 C 162.448 161.111,162.222 161.358,162.222 161.923 C 162.222 162.716,162.234 162.718,162.771 162.015 C 163.246 161.393,163.369 161.371,163.691 161.852 C 163.981 162.285,164.065 162.164,164.073 161.296 C 164.092 159.380,164.466 158.445,165.028 158.912 C 165.589 159.378,167.375 158.313,167.396 157.500 C 167.402 157.245,167.616 157.033,167.870 157.029 C 168.125 157.024,167.934 156.714,167.447 156.339 C 166.583 155.675,166.626 154.809,167.522 154.820 C 167.832 154.824,167.821 154.917,167.482 155.131 C 167.099 155.374,167.117 155.531,167.575 155.911 C 168.155 156.393,168.281 156.231,168.175 155.138 C 168.121 154.582,168.775 154.102,169.907 153.866 C 170.627 153.716,170.452 154.369,169.722 154.560 C 169.142 154.711,169.147 154.733,169.768 154.772 C 170.313 154.806,170.371 154.923,170.038 155.325 C 169.705 155.726,169.772 155.877,170.350 156.028 C 171.191 156.248,171.860 154.907,171.133 154.458 C 170.827 154.269,170.868 154.059,171.279 153.718 C 171.594 153.457,171.857 153.388,171.863 153.566 C 171.869 153.743,172.057 153.574,172.281 153.189 C 172.604 152.632,172.556 152.416,172.045 152.130 C 171.279 151.702,173.121 150.222,174.007 150.554 C 175.904 151.265,172.081 147.102,156.153 131.113 C 132.715 107.585,129.463 105.227,116.481 102.348 C 114.139 101.829,103.632 101.316,102.222 101.652 M214.074 108.316 C 214.074 108.607,213.907 108.948,213.704 109.074 C 213.500 109.200,213.333 109.023,213.333 108.680 C 213.333 108.169,213.234 108.140,212.778 108.519 C 212.329 108.891,212.222 108.880,212.222 108.459 C 212.222 108.172,212.636 107.905,213.148 107.863 C 213.740 107.814,214.074 107.977,214.074 108.316 M214.148 111.556 C 213.904 111.800,213.704 112.248,213.704 112.551 C 213.704 112.958,213.898 112.894,214.444 112.308 C 215.496 111.178,215.222 110.482,214.148 111.556 M209.212 113.667 C 209.491 113.844,209.654 114.187,209.573 114.430 C 209.478 114.715,209.179 114.599,208.729 114.102 C 208.022 113.321,208.288 113.081,209.212 113.667 M205.556 116.111 C 205.556 116.417,205.306 116.667,205.000 116.667 C 204.036 116.667,204.348 115.937,205.463 115.585 C 205.514 115.569,205.556 115.806,205.556 116.111 M209.841 116.138 C 209.111 116.868,209.102 117.074,209.815 116.801 C 210.120 116.683,210.370 116.451,210.370 116.284 C 210.370 116.117,210.662 115.904,211.019 115.811 C 211.596 115.660,211.599 115.637,211.045 115.599 C 210.703 115.575,210.161 115.817,209.841 116.138 M205.645 118.339 C 205.437 119.425,205.136 119.687,204.525 119.309 C 204.196 119.106,204.230 118.832,204.656 118.222 C 205.416 117.137,205.865 117.190,205.645 118.339 M206.667 117.708 C 206.667 117.870,207.370 118.045,208.230 118.096 C 209.089 118.146,209.696 118.091,209.577 117.972 C 209.225 117.620,206.667 117.387,206.667 117.708 M200.611 119.805 C 200.495 120.107,200.683 120.510,201.034 120.708 C 201.541 120.994,201.574 121.158,201.204 121.532 C 200.831 121.908,200.741 121.885,200.741 121.414 C 200.741 121.091,200.366 120.707,199.907 120.559 C 199.202 120.333,199.173 120.265,199.722 120.119 C 200.079 120.024,200.370 119.791,200.370 119.602 C 200.370 119.414,200.472 119.259,200.595 119.259 C 200.719 119.259,200.726 119.505,200.611 119.805 M197.997 127.092 C 198.172 127.375,198.100 127.421,197.785 127.226 C 197.522 127.064,196.954 126.893,196.524 126.846 C 195.229 126.706,195.201 126.687,195.418 126.120 C 195.650 125.517,197.440 126.191,197.997 127.092 M194.208 126.852 C 194.367 127.267,194.167 127.397,193.414 127.364 C 192.787 127.338,192.652 127.258,193.056 127.152 C 193.412 127.059,193.704 126.828,193.704 126.640 C 193.704 126.118,193.969 126.229,194.208 126.852 M172.960 151.300 C 172.460 151.903,172.852 152.028,173.651 151.522 C 173.956 151.329,174.009 151.114,173.785 150.976 C 173.583 150.851,173.211 150.997,172.960 151.300 M170.679 153.276 C 170.109 153.494,169.200 152.988,169.447 152.589 C 169.575 152.381,169.836 152.306,170.026 152.423 C 170.215 152.540,170.382 152.418,170.396 152.151 C 170.411 151.885,170.555 152.000,170.717 152.407 C 170.879 152.815,170.862 153.206,170.679 153.276 M165.185 160.926 C 164.808 161.381,164.833 161.481,165.325 161.481 C 165.656 161.481,165.926 161.231,165.926 160.926 C 165.926 160.620,165.863 160.370,165.786 160.370 C 165.709 160.370,165.439 160.620,165.185 160.926 M160.571 163.308 C 160.318 163.717,160.903 164.159,161.245 163.817 C 161.597 163.465,161.531 162.963,161.133 162.963 C 160.941 162.963,160.689 163.118,160.571 163.308 M161.481 164.029 C 161.481 164.511,162.573 165.328,162.848 165.053 C 162.979 164.922,162.874 164.815,162.615 164.815 C 162.348 164.815,162.235 164.574,162.356 164.259 C 162.486 163.921,162.357 163.704,162.025 163.704 C 161.726 163.704,161.481 163.850,161.481 164.029 M158.333 165.278 C 158.741 165.237,158.865 165.297,158.609 165.411 C 158.353 165.526,158.238 165.771,158.353 165.958 C 158.468 166.144,158.396 166.296,158.192 166.296 C 157.988 166.296,157.717 166.127,157.589 165.920 C 157.208 165.303,156.667 165.899,156.667 166.935 C 156.667 168.072,156.189 167.768,156.088 166.567 C 156.002 165.551,156.603 164.730,157.172 165.087 C 157.403 165.233,157.926 165.319,158.333 165.278 M158.395 168.395 C 157.859 168.931,158.192 169.629,158.981 169.624 C 159.600 169.620,159.683 169.535,159.304 169.295 C 159.024 169.117,158.909 168.786,159.048 168.560 C 159.322 168.117,158.804 167.987,158.395 168.395 M153.148 169.198 C 153.148 169.435,152.981 169.613,152.778 169.593 C 152.574 169.572,152.458 169.377,152.521 169.160 C 152.589 168.921,152.419 168.942,152.091 169.215 C 151.754 169.494,151.463 169.528,151.325 169.305 C 151.202 169.107,151.396 168.869,151.755 168.777 C 152.663 168.543,153.148 168.690,153.148 169.198 M191.737 271.389 C 191.644 271.745,191.567 271.454,191.567 270.741 C 191.567 270.028,191.644 269.736,191.737 270.093 C 191.830 270.449,191.830 271.032,191.737 271.389 M194.957 270.163 C 194.845 270.456,194.911 270.979,195.105 271.325 C 195.396 271.845,195.486 271.754,195.627 270.791 C 195.800 269.617,195.334 269.180,194.957 270.163 M191.271 273.317 C 190.830 273.771,190.671 273.777,190.280 273.356 C 189.899 272.945,189.932 272.895,190.463 273.082 C 190.819 273.207,191.111 273.149,191.111 272.951 C 191.111 272.754,190.935 272.593,190.719 272.593 C 190.503 272.593,190.429 272.428,190.553 272.226 C 190.696 271.995,190.968 272.029,191.288 272.319 C 191.717 272.707,191.715 272.861,191.271 273.317 M192.963 273.294 C 192.963 273.476,193.213 273.720,193.519 273.838 C 193.857 273.968,194.074 273.838,194.074 273.507 C 194.074 273.208,193.824 272.963,193.519 272.963 C 193.213 272.963,192.963 273.112,192.963 273.294 M164.124 308.330 C 164.012 308.531,163.815 308.281,163.685 307.774 C 163.556 307.267,163.542 306.687,163.654 306.485 C 163.766 306.284,163.963 306.534,164.093 307.041 C 164.222 307.548,164.236 308.128,164.124 308.330 M154.991 320.755 C 154.731 321.176,153.452 321.232,153.206 320.833 C 153.112 320.681,153.525 320.520,154.123 320.477 C 154.744 320.432,155.117 320.551,154.991 320.755 M146.582 329.931 C 146.804 330.597,146.038 330.457,145.780 329.784 C 145.642 329.423,145.724 329.254,145.995 329.344 C 146.237 329.425,146.501 329.689,146.582 329.931 " stroke="none" fill="#6cccfb" fill-rule="evenodd"></path><path id="path3" d="M260.434 71.296 C 263.128 74.133,263.625 75.179,262.284 75.191 C 261.750 75.196,261.742 75.245,262.222 75.556 C 262.561 75.774,262.604 75.917,262.334 75.920 C 262.090 75.923,261.478 76.301,260.975 76.759 C 260.471 77.218,259.706 77.889,259.273 78.251 C 258.841 78.613,258.603 79.097,258.745 79.326 C 258.889 79.559,258.839 79.642,258.632 79.514 C 258.228 79.265,256.431 81.101,256.589 81.602 C 256.642 81.770,256.544 81.820,256.372 81.713 C 256.199 81.607,255.780 81.844,255.440 82.241 C 255.100 82.638,254.910 82.963,255.018 82.963 C 255.126 82.963,255.000 83.192,254.739 83.472 C 254.477 83.752,254.025 83.890,253.734 83.778 C 253.341 83.628,253.274 83.756,253.474 84.276 C 253.622 84.662,253.637 84.871,253.507 84.741 C 253.160 84.395,251.850 85.624,252.113 86.049 C 252.238 86.251,252.146 86.293,251.906 86.145 C 251.646 85.984,251.350 86.217,251.158 86.735 C 250.984 87.207,250.693 87.572,250.513 87.547 C 249.875 87.459,249.259 87.864,249.259 88.373 C 249.259 88.657,249.104 88.889,248.914 88.889 C 248.724 88.889,248.462 89.225,248.332 89.635 C 248.201 90.045,247.948 90.290,247.769 90.180 C 247.589 90.069,247.200 90.441,246.903 91.008 C 246.606 91.574,246.224 91.995,246.052 91.944 C 245.881 91.894,245.733 92.060,245.724 92.315 C 245.715 92.569,245.519 92.740,245.289 92.695 C 245.060 92.649,244.026 93.537,242.991 94.669 C 241.957 95.801,241.105 96.505,241.099 96.234 C 241.092 95.963,240.791 96.365,240.430 97.127 C 239.894 98.258,239.681 98.429,239.277 98.053 C 238.938 97.739,238.858 97.731,239.026 98.030 C 239.563 98.987,238.389 98.908,237.285 97.913 C 236.639 97.331,239.379 100.188,243.373 104.261 C 255.003 116.120,255.335 119.398,245.891 129.068 L 241.145 133.927 253.719 146.496 L 266.292 159.065 270.212 155.181 C 284.525 141.000,289.881 126.932,287.262 110.397 C 285.355 98.356,281.638 92.304,267.454 78.148 C 262.045 72.750,258.886 69.667,260.434 71.296 M211.475 163.588 C 209.136 165.969,207.948 167.287,208.834 166.518 L 210.446 165.119 211.459 166.089 C 212.142 166.744,212.703 166.985,213.180 166.828 C 213.762 166.638,213.789 166.669,213.333 166.996 C 212.924 167.291,212.906 167.398,213.263 167.402 C 213.529 167.405,213.644 167.574,213.519 167.778 C 213.393 167.981,213.439 168.148,213.622 168.148 C 213.805 168.148,214.170 168.606,214.434 169.167 C 214.697 169.727,214.984 169.986,215.072 169.743 C 215.161 169.500,215.463 169.389,215.744 169.497 C 216.134 169.646,216.167 169.921,215.885 170.662 C 215.527 171.606,215.536 171.614,216.240 170.977 C 216.674 170.584,217.055 170.470,217.191 170.691 C 217.317 170.894,217.250 171.165,217.043 171.293 C 216.836 171.421,216.667 171.692,216.667 171.896 C 216.667 172.099,216.807 172.179,216.978 172.073 C 217.150 171.967,217.849 172.458,218.532 173.163 C 219.216 173.868,220.117 174.447,220.536 174.450 C 221.174 174.455,221.207 174.519,220.741 174.849 C 220.320 175.146,220.298 175.287,220.650 175.430 C 220.906 175.534,221.006 175.797,220.871 176.015 C 220.736 176.233,220.792 176.309,220.994 176.184 C 221.196 176.059,221.999 176.609,222.778 177.407 C 223.557 178.205,224.329 178.775,224.494 178.673 C 224.658 178.571,224.898 178.906,225.026 179.416 C 225.154 179.926,225.560 180.439,225.929 180.556 C 226.297 180.673,226.696 181.024,226.816 181.336 C 226.959 181.709,227.287 181.822,227.776 181.667 C 228.219 181.527,228.519 181.600,228.519 181.849 C 228.519 182.078,228.330 182.150,228.100 182.007 C 227.846 181.851,227.749 181.951,227.853 182.262 C 227.947 182.544,228.260 182.792,228.549 182.812 C 229.639 182.891,229.801 182.983,229.352 183.268 C 228.846 183.589,232.510 187.407,233.324 187.407 C 233.567 187.407,233.697 187.614,233.612 187.867 C 233.528 188.119,233.863 188.643,234.356 189.031 L 235.253 189.737 230.133 194.867 L 225.012 199.998 228.488 203.488 C 231.719 206.732,231.921 207.021,231.352 207.590 C 231.016 207.926,230.741 208.366,230.741 208.567 C 230.741 208.768,230.589 208.839,230.404 208.725 C 230.219 208.610,229.637 209.028,229.111 209.653 C 228.519 210.357,227.978 210.685,227.689 210.516 C 227.432 210.366,227.489 210.563,227.814 210.955 C 228.852 212.203,229.096 212.847,228.250 212.107 C 227.504 211.453,227.451 211.466,226.150 212.608 C 224.614 213.957,224.462 214.442,225.648 214.217 C 226.328 214.088,226.357 214.114,225.806 214.359 C 225.434 214.524,225.143 214.777,225.158 214.922 C 225.221 215.534,225.152 215.564,224.491 215.210 C 223.707 214.790,222.324 215.932,222.761 216.639 C 222.907 216.876,222.774 216.941,222.420 216.806 C 221.757 216.551,220.211 218.281,220.143 219.353 C 220.119 219.722,219.968 220.143,219.806 220.289 C 219.644 220.436,219.623 220.245,219.760 219.866 C 219.943 219.359,219.866 219.231,219.473 219.382 C 219.178 219.495,218.870 219.472,218.788 219.331 C 218.707 219.190,218.689 219.277,218.748 219.525 C 218.891 220.119,218.149 220.562,217.222 220.437 C 216.637 220.358,216.593 220.413,217.013 220.696 C 217.427 220.975,217.448 221.171,217.109 221.580 C 216.869 221.869,216.783 222.215,216.917 222.349 C 217.051 222.483,216.968 222.593,216.733 222.593 C 216.116 222.593,214.818 223.780,215.041 224.140 C 215.144 224.308,215.000 224.444,214.721 224.444 C 214.441 224.444,213.739 224.939,213.161 225.542 C 212.582 226.146,211.968 226.553,211.795 226.446 C 211.623 226.340,211.481 226.522,211.481 226.851 C 211.481 227.564,209.269 229.680,208.816 229.400 C 208.642 229.292,208.546 229.425,208.602 229.695 C 208.658 229.964,208.483 230.139,208.213 230.083 C 207.943 230.027,207.817 230.134,207.931 230.319 C 208.236 230.813,207.152 231.591,206.590 231.281 C 204.899 230.348,263.158 288.067,265.837 289.978 C 302.239 315.944,351.031 279.967,337.385 237.222 C 334.120 226.997,333.495 226.254,299.949 192.778 C 284.027 176.889,271.355 164.365,271.788 164.947 C 272.558 165.981,272.394 167.407,271.505 167.407 C 271.328 167.407,270.376 168.238,269.388 169.254 C 268.401 170.269,267.374 171.102,267.108 171.105 C 266.841 171.109,266.709 171.250,266.814 171.420 C 267.024 171.760,263.607 175.556,263.092 175.556 C 262.710 175.556,261.661 177.102,261.773 177.500 C 261.817 177.653,261.727 177.742,261.574 177.699 C 261.186 177.590,259.630 178.631,259.630 179.000 C 259.630 179.167,259.838 179.183,260.093 179.037 C 260.362 178.882,260.426 178.911,260.247 179.107 C 260.077 179.293,259.744 179.452,259.506 179.461 C 259.269 179.471,259.130 179.721,259.198 180.017 C 259.265 180.313,259.197 180.432,259.046 180.281 C 258.515 179.750,257.768 180.772,258.157 181.498 C 258.399 181.950,258.393 182.256,258.140 182.412 C 257.931 182.542,257.805 182.427,257.861 182.157 C 257.917 181.887,257.713 181.667,257.407 181.667 C 257.102 181.667,256.894 181.875,256.944 182.130 C 256.995 182.384,256.777 182.593,256.460 182.593 C 256.142 182.593,255.978 182.437,256.095 182.248 C 256.212 182.058,256.113 181.782,255.875 181.635 C 255.603 181.467,255.540 181.528,255.707 181.797 C 255.856 182.038,255.719 182.325,255.396 182.449 C 255.079 182.571,254.903 182.806,255.005 182.971 C 255.279 183.414,253.639 185.764,252.778 186.164 C 252.370 186.354,252.079 186.711,252.130 186.958 C 252.181 187.205,252.006 187.407,251.742 187.407 C 251.176 187.407,248.415 190.143,248.696 190.425 C 248.802 190.531,248.628 190.617,248.310 190.617 C 247.991 190.617,240.592 183.562,231.867 174.938 C 223.143 166.315,215.942 159.259,215.867 159.259 C 215.791 159.259,213.815 161.207,211.475 163.588 M244.796 187.944 C 246.712 189.869,248.443 191.343,248.642 191.220 C 248.841 191.097,248.904 191.158,248.782 191.354 C 248.661 191.551,260.563 203.701,275.232 218.356 C 304.209 247.305,303.674 246.694,303.980 251.111 C 304.438 257.703,299.532 262.803,292.778 262.758 C 287.835 262.724,289.468 264.151,255.743 230.397 L 225.375 200.002 233.147 192.223 C 237.422 187.945,241.007 184.444,241.115 184.444 C 241.223 184.444,242.879 186.019,244.796 187.944 M231.814 288.952 L 233.805 291.051 233.018 292.051 C 232.586 292.600,232.339 293.223,232.470 293.434 C 232.600 293.645,232.534 293.711,232.321 293.580 C 231.815 293.267,230.974 294.293,231.302 294.824 C 231.449 295.062,231.221 295.323,230.757 295.444 C 230.276 295.570,230.036 295.855,230.153 296.160 C 230.274 296.477,230.089 296.667,229.658 296.667 C 228.957 296.667,228.341 297.585,228.476 298.426 C 228.517 298.681,228.366 298.889,228.140 298.889 C 227.667 298.889,225.992 300.776,226.064 301.230 C 226.090 301.397,225.799 301.708,225.419 301.921 C 224.860 302.234,224.824 302.371,225.233 302.630 C 225.637 302.886,225.615 302.953,225.121 302.957 C 224.506 302.963,222.176 305.016,222.461 305.301 C 222.543 305.383,222.356 305.661,222.046 305.918 C 221.736 306.176,221.481 306.660,221.481 306.995 C 221.481 307.329,221.106 307.767,220.648 307.968 C 220.190 308.169,219.761 308.711,219.696 309.172 C 219.630 309.634,219.411 309.908,219.208 309.783 C 219.005 309.658,218.747 309.905,218.636 310.333 C 218.448 311.051,218.066 311.281,217.287 311.146 C 217.119 311.117,217.079 311.249,217.197 311.441 C 217.315 311.632,217.249 311.844,217.050 311.913 C 216.851 311.981,216.622 312.454,216.541 312.963 C 216.439 313.609,216.196 313.852,215.739 313.769 C 215.273 313.683,215.149 313.816,215.308 314.231 C 215.432 314.552,215.361 314.815,215.152 314.815 C 214.942 314.815,214.890 315.007,215.035 315.242 C 215.189 315.491,215.138 315.570,214.913 315.431 C 214.499 315.175,213.099 316.993,213.272 317.563 C 213.329 317.750,213.112 317.685,212.790 317.418 C 212.297 317.008,212.239 317.021,212.424 317.503 C 213.031 319.084,211.551 318.393,208.949 315.879 C 207.394 314.377,209.386 316.481,213.375 320.556 C 222.506 329.880,223.650 332.679,220.798 338.707 C 216.998 346.741,208.596 347.230,200.859 339.867 C 198.127 337.267,197.513 336.841,197.114 337.267 C 196.852 337.548,196.764 337.778,196.920 337.778 C 197.242 337.778,195.517 339.043,195.093 339.118 C 194.940 339.145,194.690 339.190,194.537 339.219 C 194.384 339.247,194.482 339.412,194.753 339.584 C 195.137 339.827,195.047 340.055,194.353 340.601 C 193.846 340.999,193.483 341.649,193.516 342.098 C 193.551 342.570,193.398 342.823,193.138 342.723 C 192.898 342.631,192.407 343.006,192.046 343.557 C 191.467 344.440,191.461 344.532,191.991 344.328 C 193.007 343.938,192.658 344.392,191.469 345.006 C 190.817 345.343,190.453 345.760,190.601 345.999 C 190.741 346.225,190.693 346.310,190.494 346.187 C 190.295 346.064,189.863 346.278,189.534 346.663 C 189.161 347.098,189.086 347.411,189.335 347.494 C 189.554 347.567,189.296 348.100,188.760 348.678 C 187.954 349.548,187.691 349.649,187.229 349.265 C 186.749 348.867,186.690 348.962,186.804 349.948 C 186.878 350.578,186.823 351.023,186.683 350.936 C 186.129 350.593,185.080 352.295,185.611 352.675 C 185.996 352.951,185.969 352.987,185.490 352.835 C 185.148 352.726,184.671 352.875,184.430 353.166 C 184.188 353.457,183.842 353.604,183.662 353.493 C 183.481 353.381,183.333 353.456,183.333 353.660 C 183.333 353.864,183.503 354.135,183.710 354.263 C 184.187 354.558,182.723 356.687,182.126 356.567 C 181.892 356.520,181.693 356.713,181.684 356.997 C 181.674 357.280,181.333 357.697,180.926 357.923 C 180.013 358.429,179.621 358.946,179.858 359.330 C 179.957 359.490,179.773 359.519,179.449 359.395 C 179.124 359.270,178.885 359.314,178.918 359.492 C 179.053 360.231,178.869 361.146,178.611 361.022 C 178.458 360.950,177.886 361.356,177.338 361.926 C 176.791 362.497,176.520 362.963,176.736 362.963 C 176.981 362.963,176.955 363.171,176.667 363.519 C 176.413 363.824,175.939 364.074,175.613 364.074 C 174.741 364.074,179.654 368.953,183.148 371.558 C 213.743 394.366,257.618 372.034,257.520 333.704 C 257.481 318.453,253.022 309.693,237.535 294.444 C 233.294 290.269,230.720 287.797,231.814 288.952 M182.870 354.700 C 182.513 354.793,182.222 355.217,182.222 355.644 C 182.222 356.071,182.266 356.350,182.319 356.265 C 182.372 356.181,182.731 355.736,183.117 355.278 C 183.503 354.819,183.751 354.464,183.669 354.487 C 183.586 354.511,183.227 354.607,182.870 354.700 " stroke="none" fill="#9c9d9d" fill-rule="evenodd"></path><path id="path4" d="M156.296 32.778 C 155.397 33.694,154.744 34.444,154.846 34.444 C 154.948 34.444,155.767 33.694,156.667 32.778 C 157.566 31.861,158.219 31.111,158.117 31.111 C 158.015 31.111,157.196 31.861,156.296 32.778 M142.344 66.111 C 142.345 67.537,142.412 68.075,142.493 67.307 C 142.573 66.538,142.571 65.371,142.490 64.714 C 142.408 64.056,142.342 64.685,142.344 66.111 M210.647 103.332 L 241.109 133.887 245.462 129.445 L 249.815 125.004 245.460 129.258 L 241.106 133.512 210.646 103.145 L 180.185 72.778 210.647 103.332 M244.259 105.556 C 247.310 108.611,249.889 111.111,249.991 111.111 C 250.093 111.111,247.680 108.611,244.630 105.556 C 241.579 102.500,239.000 100.000,238.898 100.000 C 238.796 100.000,241.209 102.500,244.259 105.556 M74.061 115.093 L 72.037 117.222 74.167 115.198 C 75.338 114.084,76.296 113.126,76.296 113.068 C 76.296 112.793,75.942 113.114,74.061 115.093 M287.879 117.778 C 287.879 118.694,287.951 119.069,288.039 118.611 C 288.127 118.153,288.127 117.403,288.039 116.944 C 287.951 116.486,287.879 116.861,287.879 117.778 M144.258 169.536 L 174.626 199.998 166.666 208.054 L 158.706 216.111 166.852 208.055 L 174.999 199.999 144.444 169.537 L 113.889 139.074 144.258 169.536 M96.032 148.333 C 96.035 149.352,96.107 149.725,96.192 149.162 C 96.277 148.599,96.275 147.765,96.187 147.310 C 96.099 146.854,96.029 147.315,96.032 148.333 M116.111 172.963 C 125.480 182.333,133.228 190.000,133.330 190.000 C 133.432 190.000,125.850 182.333,116.481 172.963 C 107.113 163.593,99.364 155.926,99.262 155.926 C 99.160 155.926,106.742 163.593,116.111 172.963 M207.775 166.944 L 199.815 175.000 207.870 167.040 C 215.355 159.644,216.093 158.889,215.830 158.889 C 215.777 158.889,212.152 162.514,207.775 166.944 M296.667 189.444 C 313.471 206.250,327.304 220.000,327.406 220.000 C 327.508 220.000,313.842 206.250,297.037 189.444 C 280.232 172.639,266.400 158.889,266.298 158.889 C 266.196 158.889,279.862 172.639,296.667 189.444 M230.370 255.741 C 247.175 272.546,261.008 286.296,261.109 286.296 C 261.211 286.296,247.545 272.546,230.741 255.741 C 213.936 238.935,200.104 225.185,200.002 225.185 C 199.900 225.185,213.566 238.935,230.370 255.741 M129.253 245.463 L 125.000 249.815 129.352 245.562 C 131.745 243.222,133.704 241.264,133.704 241.210 C 133.704 240.943,133.204 241.421,129.253 245.463 M292.315 298.774 C 292.671 298.867,293.255 298.867,293.611 298.774 C 293.968 298.681,293.676 298.604,292.963 298.604 C 292.250 298.604,291.958 298.681,292.315 298.774 M168.148 307.222 C 168.839 307.935,169.488 308.519,169.590 308.519 C 169.692 308.519,169.210 307.935,168.519 307.222 C 167.827 306.509,167.179 305.926,167.077 305.926 C 166.975 305.926,167.457 306.509,168.148 307.222 M173.333 312.338 C 173.333 312.402,173.875 312.944,174.537 313.542 L 175.741 314.630 174.653 313.426 C 173.639 312.304,173.333 312.052,173.333 312.338 M151.111 340.556 C 166.082 355.528,178.415 367.778,178.517 367.778 C 178.618 367.778,166.453 355.528,151.481 340.556 C 136.510 325.583,124.178 313.333,124.076 313.333 C 123.974 313.333,136.140 325.583,151.111 340.556 M191.111 330.185 C 197.525 336.602,202.857 341.852,202.959 341.852 C 203.060 341.852,197.896 336.602,191.481 330.185 C 185.067 323.769,179.736 318.519,179.634 318.519 C 179.532 318.519,184.697 323.769,191.111 330.185 M210.282 345.077 C 210.743 345.165,211.409 345.162,211.764 345.069 C 212.118 344.977,211.741 344.904,210.926 344.908 C 210.111 344.912,209.821 344.988,210.282 345.077 " stroke="none" fill="#bacfda" fill-rule="evenodd"></path></g></svg>